STARTFONT 2.1
COMMENT  (c) Copyright Bigelow & Holmes 1986, 1985. Lucida is a registered
COMMENT  trademark of Bigelow & Holmes. See LEGAL NOTICE file for terms 
COMMENT  of the license. 
FONT -B&H-LucidaTypewriter-Bold-R-Normal-Sans-14-100-100-100-M-80-ISO8859-1
SIZE 10 100 100
FONTBOUNDINGBOX 11 16 -1 -3
STARTPROPERTIES 19
COMMENT Begin LogicalFontDescription
FONTNAME_REGISTRY ""
FOUNDRY "B&H"
FAMILY_NAME "LucidaTypewriter"
WEIGHT_NAME "Bold"
SLANT "R"
SETWIDTH_NAME "Normal"
ADD_STYLE_NAME "Sans"
PIXEL_SIZE 14
POINT_SIZE 100
RESOLUTION_X 100
RESOLUTION_Y 100
SPACING "M"
AVERAGE_WIDTH 80
CHARSET_REGISTRY "ISO8859"
CHARSET_ENCODING "1"
COMMENT END LogicalFontDescription
FONT_ASCENT 12
FONT_DESCENT 3
DEFAULT_CHAR 32
COPYRIGHT "Copyright Bigelow & Holmes 1986, 1985."
ENDPROPERTIES
CHARS 228
STARTCHAR space
ENCODING 32
SWIDTH 42 0
DWIDTH 8 0
BBX 1 1 0 0
BITMAP
00
ENDCHAR
STARTCHAR exclam
ENCODING 33
SWIDTH 42 0
DWIDTH 8 0
BBX 2 10 3 0
BITMAP
C0
C0
C0
C0
C0
80
80
00
00
C0
ENDCHAR
STARTCHAR quotedbl
ENCODING 34
SWIDTH 42 0
DWIDTH 8 0
BBX 5 4 2 6
BITMAP
88
88
88
88
ENDCHAR
STARTCHAR numbersign
ENCODING 35
SWIDTH 42 0
DWIDTH 8 0
BBX 7 10 1 0
BITMAP
14
14
24
7E
28
28
FC
58
50
50
ENDCHAR
STARTCHAR dollar
ENCODING 36
SWIDTH 42 0
DWIDTH 8 0
BBX 6 13 1 -2
BITMAP
10
3C
44
C0
E0
70
38
1C
0C
8C
F8
10
10
ENDCHAR
STARTCHAR percent
ENCODING 37
SWIDTH 42 0
DWIDTH 8 0
BBX 9 10 0 0
BITMAP
6180
9300
9200
9400
6800
0B00
1480
2480
6480
C300
ENDCHAR
STARTCHAR ampersand
ENCODING 38
SWIDTH 42 0
DWIDTH 8 0
BBX 8 10 0 0
BITMAP
38
6C
6C
7C
33
FB
DB
DE
CE
7F
ENDCHAR
STARTCHAR quoteright
ENCODING 39
SWIDTH 42 0
DWIDTH 8 0
BBX 2 4 3 6
BITMAP
C0
C0
40
C0
ENDCHAR
STARTCHAR parenleft
ENCODING 40
SWIDTH 42 0
DWIDTH 8 0
BBX 6 13 2 -3
BITMAP
1C
38
60
E0
C0
C0
C0
C0
C0
60
70
3C
0C
ENDCHAR
STARTCHAR parenright
ENCODING 41
SWIDTH 42 0
DWIDTH 8 0
BBX 6 13 1 -3
BITMAP
C0
F0
38
18
0C
0C
0C
0C
0C
18
18
70
C0
ENDCHAR
STARTCHAR asterisk
ENCODING 42
SWIDTH 42 0
DWIDTH 8 0
BBX 6 6 1 4
BITMAP
30
94
CC
28
78
48
ENDCHAR
STARTCHAR plus
ENCODING 43
SWIDTH 42 0
DWIDTH 8 0
BBX 7 7 1 0
BITMAP
10
10
10
FE
10
10
10
ENDCHAR
STARTCHAR comma
ENCODING 44
SWIDTH 42 0
DWIDTH 8 0
BBX 2 5 3 -3
BITMAP
C0
C0
40
40
C0
ENDCHAR
STARTCHAR minus
ENCODING 45
SWIDTH 42 0
DWIDTH 8 0
BBX 7 1 1 3
BITMAP
FE
ENDCHAR
STARTCHAR period
ENCODING 46
SWIDTH 42 0
DWIDTH 8 0
BBX 2 2 3 0
BITMAP
C0
C0
ENDCHAR
STARTCHAR slash
ENCODING 47
SWIDTH 42 0
DWIDTH 8 0
BBX 8 13 0 -3
BITMAP
03
02
06
04
0C
08
18
10
30
20
60
40
C0
ENDCHAR
STARTCHAR zero
ENCODING 48
SWIDTH 42 0
DWIDTH 8 0
BBX 7 10 1 0
BITMAP
38
44
C6
C6
C6
C6
C6
C6
44
38
ENDCHAR
STARTCHAR one
ENCODING 49
SWIDTH 42 0
DWIDTH 8 0
BBX 6 10 2 0
BITMAP
F0
30
30
30
30
30
30
30
30
FC
ENDCHAR
STARTCHAR two
ENCODING 50
SWIDTH 42 0
DWIDTH 8 0
BBX 6 10 1 0
BITMAP
F8
8C
0C
0C
08
10
20
60
C0
FC
ENDCHAR
STARTCHAR three
ENCODING 51
SWIDTH 42 0
DWIDTH 8 0
BBX 6 10 1 0
BITMAP
F8
0C
0C
1C
70
18
0C
0C
1C
F8
ENDCHAR
STARTCHAR four
ENCODING 52
SWIDTH 42 0
DWIDTH 8 0
BBX 7 10 1 0
BITMAP
0C
1C
3C
2C
4C
FE
FE
0C
0C
0C
ENDCHAR
STARTCHAR five
ENCODING 53
SWIDTH 42 0
DWIDTH 8 0
BBX 5 10 2 0
BITMAP
F8
80
80
E0
30
18
18
18
B8
F0
ENDCHAR
STARTCHAR six
ENCODING 54
SWIDTH 42 0
DWIDTH 8 0
BBX 7 10 1 0
BITMAP
1E
60
40
DC
EE
C6
C6
C6
6C
38
ENDCHAR
STARTCHAR seven
ENCODING 55
SWIDTH 42 0
DWIDTH 8 0
BBX 6 10 2 0
BITMAP
FC
0C
08
10
30
20
60
60
C0
C0
ENDCHAR
STARTCHAR eight
ENCODING 56
SWIDTH 42 0
DWIDTH 8 0
BBX 7 10 1 0
BITMAP
38
6C
6C
7C
38
7C
CE
C6
C6
7C
ENDCHAR
STARTCHAR nine
ENCODING 57
SWIDTH 42 0
DWIDTH 8 0
BBX 7 10 1 0
BITMAP
38
6C
C6
C6
C6
EE
76
04
0C
F0
ENDCHAR
STARTCHAR colon
ENCODING 58
SWIDTH 42 0
DWIDTH 8 0
BBX 2 7 3 0
BITMAP
C0
C0
00
00
00
C0
C0
ENDCHAR
STARTCHAR semicolon
ENCODING 59
SWIDTH 42 0
DWIDTH 8 0
BBX 2 10 3 -3
BITMAP
C0
C0
00
00
00
C0
C0
40
40
C0
ENDCHAR
STARTCHAR less
ENCODING 60
SWIDTH 42 0
DWIDTH 8 0
BBX 6 7 0 0
BITMAP
04
1C
70
C0
70
1C
04
ENDCHAR
STARTCHAR equal
ENCODING 61
SWIDTH 42 0
DWIDTH 8 0
BBX 7 5 1 1
BITMAP
FE
00
00
00
FE
ENDCHAR
STARTCHAR greater
ENCODING 62
SWIDTH 42 0
DWIDTH 8 0
BBX 6 7 1 0
BITMAP
80
E0
38
0C
38
E0
80
ENDCHAR
STARTCHAR question
ENCODING 63
SWIDTH 42 0
DWIDTH 8 0
BBX 7 10 1 0
BITMAP
FC
86
86
0C
18
20
60
00
00
60
ENDCHAR
STARTCHAR at
ENCODING 64
SWIDTH 42 0
DWIDTH 8 0
BBX 8 10 0 0
BITMAP
3C
62
5E
B2
A2
A6
A6
9B
44
3C
ENDCHAR
STARTCHAR A
ENCODING 65
SWIDTH 42 0
DWIDTH 8 0
BBX 8 10 0 0
BITMAP
18
1C
1C
2C
2E
26
7E
46
47
83
ENDCHAR
STARTCHAR B
ENCODING 66
SWIDTH 42 0
DWIDTH 8 0
BBX 7 10 1 0
BITMAP
FC
C6
C6
CE
F8
CC
C6
C6
CE
FC
ENDCHAR
STARTCHAR C
ENCODING 67
SWIDTH 42 0
DWIDTH 8 0
BBX 8 10 0 0
BITMAP
1F
71
60
C0
C0
C0
C0
60
71
1F
ENDCHAR
STARTCHAR D
ENCODING 68
SWIDTH 42 0
DWIDTH 8 0
BBX 8 10 0 0
BITMAP
FC
C6
C3
C3
C3
C3
C3
C2
C6
FC
ENDCHAR
STARTCHAR E
ENCODING 69
SWIDTH 42 0
DWIDTH 8 0
BBX 7 10 1 0
BITMAP
FE
C0
C0
C0
FC
C0
C0
C0
C0
FE
ENDCHAR
STARTCHAR F
ENCODING 70
SWIDTH 42 0
DWIDTH 8 0
BBX 7 10 1 0
BITMAP
FE
C0
C0
C0
FC
C0
C0
C0
C0
C0
ENDCHAR
STARTCHAR G
ENCODING 71
SWIDTH 42 0
DWIDTH 8 0
BBX 8 10 0 0
BITMAP
1F
71
60
C0
C0
C3
C3
63
73
1F
ENDCHAR
STARTCHAR H
ENCODING 72
SWIDTH 42 0
DWIDTH 8 0
BBX 7 10 1 0
BITMAP
C6
C6
C6
C6
FE
C6
C6
C6
C6
C6
ENDCHAR
STARTCHAR I
ENCODING 73
SWIDTH 42 0
DWIDTH 8 0
BBX 6 10 1 0
BITMAP
FC
30
30
30
30
30
30
30
30
FC
ENDCHAR
STARTCHAR J
ENCODING 74
SWIDTH 42 0
DWIDTH 8 0
BBX 6 10 1 0
BITMAP
7C
0C
0C
0C
0C
0C
0C
0C
0C
F8
ENDCHAR
STARTCHAR K
ENCODING 75
SWIDTH 42 0
DWIDTH 8 0
BBX 7 10 1 0
BITMAP
C6
CC
C8
D0
F0
F0
D8
DC
CC
CE
ENDCHAR
STARTCHAR L
ENCODING 76
SWIDTH 42 0
DWIDTH 8 0
BBX 7 10 1 0
BITMAP
C0
C0
C0
C0
C0
C0
C0
C0
C0
FE
ENDCHAR
STARTCHAR M
ENCODING 77
SWIDTH 42 0
DWIDTH 8 0
BBX 8 10 0 0
BITMAP
C7
C7
E7
A7
A7
AB
AB
9B
9B
83
ENDCHAR
STARTCHAR N
ENCODING 78
SWIDTH 42 0
DWIDTH 8 0
BBX 7 10 1 0
BITMAP
C2
E2
E2
B2
B2
9A
9E
8E
8E
86
ENDCHAR
STARTCHAR O
ENCODING 79
SWIDTH 42 0
DWIDTH 8 0
BBX 8 10 0 0
BITMAP
3C
66
C3
C3
C3
C3
C3
C3
66
3C
ENDCHAR
STARTCHAR P
ENCODING 80
SWIDTH 42 0
DWIDTH 8 0
BBX 7 10 1 0
BITMAP
FC
C6
C6
C6
CE
FC
C0
C0
C0
C0
ENDCHAR
STARTCHAR Q
ENCODING 81
SWIDTH 42 0
DWIDTH 8 0
BBX 9 13 0 -3
BITMAP
3C00
6600
C300
C300
C300
C300
C300
C300
6600
3C00
0780
0300
0100
ENDCHAR
STARTCHAR R
ENCODING 82
SWIDTH 42 0
DWIDTH 8 0
BBX 8 10 1 0
BITMAP
FC
C6
C6
CE
FC
D8
CC
CC
C6
C7
ENDCHAR
STARTCHAR S
ENCODING 83
SWIDTH 42 0
DWIDTH 8 0
BBX 7 10 1 0
BITMAP
7C
C4
C0
E0
78
1C
0E
06
8E
F8
ENDCHAR
STARTCHAR T
ENCODING 84
SWIDTH 42 0
DWIDTH 8 0
BBX 8 10 0 0
BITMAP
FF
18
18
18
18
18
18
18
18
18
ENDCHAR
STARTCHAR U
ENCODING 85
SWIDTH 42 0
DWIDTH 8 0
BBX 7 10 1 0
BITMAP
C6
C6
C6
C6
C6
C6
C6
C6
C6
7C
ENDCHAR
STARTCHAR V
ENCODING 86
SWIDTH 42 0
DWIDTH 8 0
BBX 8 10 0 0
BITMAP
C1
C2
62
62
64
34
34
38
38
18
ENDCHAR
STARTCHAR W
ENCODING 87
SWIDTH 42 0
DWIDTH 8 0
BBX 8 10 0 0
BITMAP
C1
C9
D9
DF
7F
7E
7E
66
66
66
ENDCHAR
STARTCHAR X
ENCODING 88
SWIDTH 42 0
DWIDTH 8 0
BBX 8 10 0 0
BITMAP
E3
62
74
3C
18
18
2C
2E
46
C7
ENDCHAR
STARTCHAR Y
ENCODING 89
SWIDTH 42 0
DWIDTH 8 0
BBX 8 10 0 0
BITMAP
C3
62
76
34
38
18
18
18
18
18
ENDCHAR
STARTCHAR Z
ENCODING 90
SWIDTH 42 0
DWIDTH 8 0
BBX 7 10 1 0
BITMAP
FE
0E
0C
1C
18
30
70
60
E0
FE
ENDCHAR
STARTCHAR bracketleft
ENCODING 91
SWIDTH 42 0
DWIDTH 8 0
BBX 5 13 3 -3
BITMAP
F8
C0
C0
C0
C0
C0
C0
C0
C0
C0
C0
C0
F8
ENDCHAR
STARTCHAR backslash
ENCODING 92
SWIDTH 42 0
DWIDTH 8 0
BBX 8 13 0 -3
BITMAP
C0
40
20
20
30
10
18
08
0C
04
04
02
03
ENDCHAR
STARTCHAR bracketright
ENCODING 93
SWIDTH 42 0
DWIDTH 8 0
BBX 5 13 1 -3
BITMAP
F8
18
18
18
18
18
18
18
18
18
18
18
F8
ENDCHAR
STARTCHAR asciicircum
ENCODING 94
SWIDTH 42 0
DWIDTH 8 0
BBX 7 7 1 2
BITMAP
10
10
28
28
44
44
C6
ENDCHAR
STARTCHAR underscore
ENCODING 95
SWIDTH 42 0
DWIDTH 8 0
BBX 8 1 0 -2
BITMAP
FF
ENDCHAR
STARTCHAR quoteleft
ENCODING 96
SWIDTH 42 0
DWIDTH 8 0
BBX 2 4 3 6
BITMAP
C0
80
C0
C0
ENDCHAR
STARTCHAR a
ENCODING 97
SWIDTH 42 0
DWIDTH 8 0
BBX 7 7 1 0
BITMAP
78
4C
0C
7C
CC
CC
76
ENDCHAR
STARTCHAR b
ENCODING 98
SWIDTH 42 0
DWIDTH 8 0
BBX 7 10 1 0
BITMAP
C0
C0
C0
DC
FE
E6
C6
C6
CC
FC
ENDCHAR
STARTCHAR c
ENCODING 99
SWIDTH 42 0
DWIDTH 8 0
BBX 7 7 1 0
BITMAP
3E
60
C0
C0
C0
60
3E
ENDCHAR
STARTCHAR d
ENCODING 100
SWIDTH 42 0
DWIDTH 8 0
BBX 7 10 1 0
BITMAP
06
06
06
7E
66
C6
C6
CE
FE
76
ENDCHAR
STARTCHAR e
ENCODING 101
SWIDTH 42 0
DWIDTH 8 0
BBX 7 7 1 0
BITMAP
3C
66
C6
FE
C0
62
3E
ENDCHAR
STARTCHAR f
ENCODING 102
SWIDTH 42 0
DWIDTH 8 0
BBX 7 10 1 0
BITMAP
3E
60
60
FC
60
60
60
60
60
60
ENDCHAR
STARTCHAR g
ENCODING 103
SWIDTH 42 0
DWIDTH 8 0
BBX 7 10 1 -3
BITMAP
7E
E6
C6
C6
CE
FE
76
06
4C
78
ENDCHAR
STARTCHAR h
ENCODING 104
SWIDTH 42 0
DWIDTH 8 0
BBX 7 10 1 0
BITMAP
C0
C0
C0
DC
FE
E6
C6
C6
C6
C6
ENDCHAR
STARTCHAR i
ENCODING 105
SWIDTH 42 0
DWIDTH 8 0
BBX 5 10 1 0
BITMAP
18
18
00
F8
18
18
18
18
18
18
ENDCHAR
STARTCHAR j
ENCODING 106
SWIDTH 42 0
DWIDTH 8 0
BBX 5 13 1 -3
BITMAP
18
18
00
78
18
18
18
18
18
18
18
98
F0
ENDCHAR
STARTCHAR k
ENCODING 107
SWIDTH 42 0
DWIDTH 8 0
BBX 7 10 1 0
BITMAP
C0
C0
C0
CC
C8
D0
F8
D8
DC
CE
ENDCHAR
STARTCHAR l
ENCODING 108
SWIDTH 42 0
DWIDTH 8 0
BBX 5 10 1 0
BITMAP
F8
18
18
18
18
18
18
18
18
18
ENDCHAR
STARTCHAR m
ENCODING 109
SWIDTH 42 0
DWIDTH 8 0
BBX 8 7 0 0
BITMAP
DF
FF
DB
DB
DB
DB
DB
ENDCHAR
STARTCHAR n
ENCODING 110
SWIDTH 42 0
DWIDTH 8 0
BBX 7 7 1 0
BITMAP
DC
FE
E6
C6
C6
C6
C6
ENDCHAR
STARTCHAR o
ENCODING 111
SWIDTH 42 0
DWIDTH 8 0
BBX 8 7 0 0
BITMAP
3C
66
C3
C3
C3
66
3C
ENDCHAR
STARTCHAR p
ENCODING 112
SWIDTH 42 0
DWIDTH 8 0
BBX 7 10 1 -3
BITMAP
DC
FE
E6
C6
C6
CC
FC
C0
C0
C0
ENDCHAR
STARTCHAR q
ENCODING 113
SWIDTH 42 0
DWIDTH 8 0
BBX 7 10 1 -3
BITMAP
7E
66
C6
C6
CE
FE
76
06
06
06
ENDCHAR
STARTCHAR r
ENCODING 114
SWIDTH 42 0
DWIDTH 8 0
BBX 6 7 2 0
BITMAP
DC
FC
E4
C0
C0
C0
C0
ENDCHAR
STARTCHAR s
ENCODING 115
SWIDTH 42 0
DWIDTH 8 0
BBX 6 7 1 0
BITMAP
7C
C0
E0
7C
1C
8C
F8
ENDCHAR
STARTCHAR t
ENCODING 116
SWIDTH 42 0
DWIDTH 8 0
BBX 7 9 1 0
BITMAP
30
30
FE
30
30
30
30
30
1E
ENDCHAR
STARTCHAR u
ENCODING 117
SWIDTH 42 0
DWIDTH 8 0
BBX 7 7 1 0
BITMAP
C6
C6
C6
C6
CE
FE
76
ENDCHAR
STARTCHAR v
ENCODING 118
SWIDTH 42 0
DWIDTH 8 0
BBX 8 7 0 0
BITMAP
C3
62
62
74
34
38
18
ENDCHAR
STARTCHAR w
ENCODING 119
SWIDTH 42 0
DWIDTH 8 0
BBX 8 7 0 0
BITMAP
C1
D9
DF
7E
7E
66
66
ENDCHAR
STARTCHAR x
ENCODING 120
SWIDTH 42 0
DWIDTH 8 0
BBX 8 7 0 0
BITMAP
E2
74
38
18
2C
6E
C7
ENDCHAR
STARTCHAR y
ENCODING 121
SWIDTH 42 0
DWIDTH 8 0
BBX 8 10 0 -3
BITMAP
C3
62
62
34
34
18
18
10
10
E0
ENDCHAR
STARTCHAR z
ENCODING 122
SWIDTH 42 0
DWIDTH 8 0
BBX 7 7 1 0
BITMAP
FE
0E
1C
38
70
E0
FE
ENDCHAR
STARTCHAR braceleft
ENCODING 123
SWIDTH 42 0
DWIDTH 8 0
BBX 7 13 1 -3
BITMAP
1E
18
18
18
18
18
E0
18
18
18
18
18
1E
ENDCHAR
STARTCHAR bar
ENCODING 124
SWIDTH 42 0
DWIDTH 8 0
BBX 1 13 4 -3
BITMAP
80
80
80
80
80
80
80
80
80
80
80
80
80
ENDCHAR
STARTCHAR braceright
ENCODING 125
SWIDTH 42 0
DWIDTH 8 0
BBX 7 13 0 -3
BITMAP
F0
30
30
30
30
30
0E
30
30
30
30
30
F0
ENDCHAR
STARTCHAR asciitilde
ENCODING 126
SWIDTH 42 0
DWIDTH 8 0
BBX 7 3 1 2
BITMAP
62
92
8C
ENDCHAR
STARTCHAR exclamdown
ENCODING 161
SWIDTH 42 0
DWIDTH 8 0
BBX 2 10 3 -3
BITMAP
C0
C0
00
80
80
C0
C0
C0
C0
C0
ENDCHAR
STARTCHAR cent
ENCODING 162
SWIDTH 42 0
DWIDTH 8 0
BBX 7 10 1 0
BITMAP
08
1E
62
C0
C0
C0
C0
62
3E
08
ENDCHAR
STARTCHAR sterling
ENCODING 163
SWIDTH 42 0
DWIDTH 8 0
BBX 6 10 1 0
BITMAP
3C
60
60
60
F8
60
60
60
40
FC
ENDCHAR
STARTCHAR currency
ENCODING 164
SWIDTH 42 0
DWIDTH 8 0
BBX 8 8 0 1
BITMAP
42
FF
66
42
42
66
FF
42
ENDCHAR
STARTCHAR yen
ENCODING 165
SWIDTH 42 0
DWIDTH 8 0
BBX 8 10 0 0
BITMAP
E3
76
3C
38
7E
18
7E
18
18
18
ENDCHAR
STARTCHAR brokenbar
ENCODING 166
SWIDTH 42 0
DWIDTH 8 0
BBX 1 13 4 -3
BITMAP
80
80
80
80
80
00
00
00
80
80
80
80
80
ENDCHAR
STARTCHAR section
ENCODING 167
SWIDTH 42 0
DWIDTH 8 0
BBX 6 13 1 -3
BITMAP
78
C0
C0
E0
78
8C
84
E4
78
3C
0C
0C
F8
ENDCHAR
STARTCHAR dieresis
ENCODING 168
SWIDTH 42 0
DWIDTH 8 0
BBX 4 1 2 9
BITMAP
F0
ENDCHAR
STARTCHAR copyright
ENCODING 169
SWIDTH 42 0
DWIDTH 8 0
BBX 8 10 0 0
BITMAP
3C
42
9D
A1
A1
A1
A1
9D
42
3C
ENDCHAR
STARTCHAR ordfeminine
ENCODING 170
SWIDTH 42 0
DWIDTH 8 0
BBX 6 5 1 5
BITMAP
F8
08
F8
88
FC
ENDCHAR
STARTCHAR guillemotleft
ENCODING 171
SWIDTH 42 0
DWIDTH 8 0
BBX 8 7 0 0
BITMAP
11
32
26
EC
66
37
12
ENDCHAR
STARTCHAR logicalnot
ENCODING 172
SWIDTH 42 0
DWIDTH 8 0
BBX 7 4 1 1
BITMAP
FE
02
02
02
ENDCHAR
STARTCHAR hyphen
ENCODING 173
SWIDTH 42 0
DWIDTH 8 0
BBX 6 1 1 4
BITMAP
FC
ENDCHAR
STARTCHAR registered
ENCODING 174
SWIDTH 42 0
DWIDTH 8 0
BBX 7 7 1 3
BITMAP
38
44
BA
BA
B2
6C
38
ENDCHAR
STARTCHAR macron
ENCODING 175
SWIDTH 42 0
DWIDTH 8 0
BBX 4 1 2 9
BITMAP
F0
ENDCHAR
STARTCHAR degree
ENCODING 176
SWIDTH 42 0
DWIDTH 8 0
BBX 3 2 4 8
BITMAP
E0
60
ENDCHAR
STARTCHAR plusminus
ENCODING 177
SWIDTH 42 0
DWIDTH 8 0
BBX 7 7 1 0
BITMAP
10
10
FE
10
10
00
FE
ENDCHAR
STARTCHAR twosuperior
ENCODING 178
SWIDTH 42 0
DWIDTH 8 0
BBX 3 5 -1 5
BITMAP
E0
20
60
C0
E0
ENDCHAR
STARTCHAR threesuperior
ENCODING 179
SWIDTH 42 0
DWIDTH 8 0
BBX 3 5 -1 5
BITMAP
E0
20
C0
20
E0
ENDCHAR
STARTCHAR acute
ENCODING 180
SWIDTH 42 0
DWIDTH 8 0
BBX 3 2 3 8
BITMAP
60
C0
ENDCHAR
STARTCHAR mu
ENCODING 181
SWIDTH 42 0
DWIDTH 8 0
BBX 7 10 1 -3
BITMAP
C6
C6
C6
C6
CE
FE
FE
C0
C0
C0
ENDCHAR
STARTCHAR paragraph
ENCODING 182
SWIDTH 42 0
DWIDTH 8 0
BBX 6 13 1 -3
BITMAP
7C
F4
F4
F4
74
14
14
14
14
14
14
14
14
ENDCHAR
STARTCHAR periodcentered
ENCODING 183
SWIDTH 42 0
DWIDTH 8 0
BBX 2 2 3 2
BITMAP
C0
C0
ENDCHAR
STARTCHAR cedilla
ENCODING 184
SWIDTH 42 0
DWIDTH 8 0
BBX 3 3 3 -3
BITMAP
C0
60
E0
ENDCHAR
STARTCHAR onesuperior
ENCODING 185
SWIDTH 42 0
DWIDTH 8 0
BBX 3 5 -1 5
BITMAP
C0
40
40
40
E0
ENDCHAR
STARTCHAR ordmasculine
ENCODING 186
SWIDTH 42 0
DWIDTH 8 0
BBX 6 5 1 5
BITMAP
78
CC
84
CC
78
ENDCHAR
STARTCHAR guillemotright
ENCODING 187
SWIDTH 42 0
DWIDTH 8 0
BBX 8 7 0 0
BITMAP
48
EC
66
37
64
4C
88
ENDCHAR
STARTCHAR onequarter
ENCODING 188
SWIDTH 42 0
DWIDTH 8 0
BBX 8 10 2 0
BITMAP
C3
42
44
4C
E8
16
36
2A
4F
C2
ENDCHAR
STARTCHAR onehalf
ENCODING 189
SWIDTH 42 0
DWIDTH 8 0
BBX 8 10 2 0
BITMAP
C3
42
44
4C
E8
17
31
23
46
C7
ENDCHAR
STARTCHAR threequarters
ENCODING 190
SWIDTH 42 0
DWIDTH 8 0
BBX 8 10 2 0
BITMAP
E3
22
C4
2C
E8
16
36
2A
4F
C2
ENDCHAR
STARTCHAR questiondown
ENCODING 191
SWIDTH 42 0
DWIDTH 8 0
BBX 7 10 0 -3
BITMAP
0C
0C
00
0C
08
30
60
C2
C2
7E
ENDCHAR
STARTCHAR Agrave
ENCODING 192
SWIDTH 42 0
DWIDTH 8 0
BBX 8 13 0 0
BITMAP
18
0C
00
18
1C
1C
2C
2E
26
7E
46
47
83
ENDCHAR
STARTCHAR Aacute
ENCODING 193
SWIDTH 42 0
DWIDTH 8 0
BBX 8 13 0 0
BITMAP
0C
18
00
18
1C
1C
2C
2E
26
7E
46
47
83
ENDCHAR
STARTCHAR Acircumflex
ENCODING 194
SWIDTH 42 0
DWIDTH 8 0
BBX 8 13 0 0
BITMAP
18
3C
00
18
1C
1C
2C
2E
26
7E
46
47
83
ENDCHAR
STARTCHAR Atilde
ENCODING 195
SWIDTH 42 0
DWIDTH 8 0
BBX 8 13 0 0
BITMAP
3C
3C
00
18
1C
1C
2C
2E
26
7E
46
47
83
ENDCHAR
STARTCHAR Adieresis
ENCODING 196
SWIDTH 42 0
DWIDTH 8 0
BBX 8 12 0 0
BITMAP
3C
00
18
1C
1C
2C
2E
26
7E
46
47
83
ENDCHAR
STARTCHAR Aring
ENCODING 197
SWIDTH 42 0
DWIDTH 8 0
BBX 8 13 0 0
BITMAP
18
18
10
18
1C
1C
2C
2E
26
7E
46
47
83
ENDCHAR
STARTCHAR AE
ENCODING 198
SWIDTH 42 0
DWIDTH 8 0
BBX 8 10 0 0
BITMAP
0F
1C
1C
1C
2F
2C
6C
7C
4C
8F
ENDCHAR
STARTCHAR Ccedilla
ENCODING 199
SWIDTH 42 0
DWIDTH 8 0
BBX 8 13 0 -3
BITMAP
1F
71
60
C0
C0
C0
C0
60
71
1F
08
0C
1C
ENDCHAR
STARTCHAR Egrave
ENCODING 200
SWIDTH 42 0
DWIDTH 8 0
BBX 7 13 1 0
BITMAP
30
18
00
FE
C0
C0
C0
FC
C0
C0
C0
C0
FE
ENDCHAR
STARTCHAR Eacute
ENCODING 201
SWIDTH 42 0
DWIDTH 8 0
BBX 7 13 1 0
BITMAP
18
30
00
FE
C0
C0
C0
FC
C0
C0
C0
C0
FE
ENDCHAR
STARTCHAR Ecircumflex
ENCODING 202
SWIDTH 42 0
DWIDTH 0 0
BBX 0 0 0 0
BITMAP
ENDCHAR
STARTCHAR Edieresis
ENCODING 203
SWIDTH 42 0
DWIDTH 8 0
BBX 7 12 1 0
BITMAP
78
00
FE
C0
C0
C0
FC
C0
C0
C0
C0
FE
ENDCHAR
STARTCHAR Igrave
ENCODING 204
SWIDTH 42 0
DWIDTH 8 0
BBX 6 13 1 0
BITMAP
30
18
00
FC
30
30
30
30
30
30
30
30
FC
ENDCHAR
STARTCHAR Iacute
ENCODING 205
SWIDTH 42 0
DWIDTH 8 0
BBX 6 13 1 0
BITMAP
18
30
00
FC
30
30
30
30
30
30
30
30
FC
ENDCHAR
STARTCHAR Icircumflex
ENCODING 206
SWIDTH 42 0
DWIDTH 8 0
BBX 6 13 1 0
BITMAP
30
78
00
FC
30
30
30
30
30
30
30
30
FC
ENDCHAR
STARTCHAR Idieresis
ENCODING 207
SWIDTH 42 0
DWIDTH 8 0
BBX 6 12 1 0
BITMAP
78
00
FC
30
30
30
30
30
30
30
30
FC
ENDCHAR
STARTCHAR Eth
ENCODING 208
SWIDTH 42 0
DWIDTH 8 0
BBX 9 10 0 0
BITMAP
7E00
6300
6180
6180
F980
6180
6180
6100
6300
7E00
ENDCHAR
STARTCHAR Ntilde
ENCODING 209
SWIDTH 42 0
DWIDTH 8 0
BBX 7 13 1 0
BITMAP
3C
3C
00
C2
E2
E2
B2
B2
9A
9E
8E
8E
86
ENDCHAR
STARTCHAR Ograve
ENCODING 210
SWIDTH 42 0
DWIDTH 8 0
BBX 8 13 0 0
BITMAP
18
0C
00
3C
66
C3
C3
C3
C3
C3
C3
66
3C
ENDCHAR
STARTCHAR Oacute
ENCODING 211
SWIDTH 42 0
DWIDTH 8 0
BBX 8 13 0 0
BITMAP
18
30
00
3C
66
C3
C3
C3
C3
C3
C3
66
3C
ENDCHAR
STARTCHAR Ocircumflex
ENCODING 212
SWIDTH 42 0
DWIDTH 8 0
BBX 8 13 0 0
BITMAP
18
3C
00
3C
66
C3
C3
C3
C3
C3
C3
66
3C
ENDCHAR
STARTCHAR Otilde
ENCODING 213
SWIDTH 42 0
DWIDTH 8 0
BBX 8 13 0 0
BITMAP
3C
3C
00
3C
66
C3
C3
C3
C3
C3
C3
66
3C
ENDCHAR
STARTCHAR Odieresis
ENCODING 214
SWIDTH 42 0
DWIDTH 8 0
BBX 8 12 0 0
BITMAP
3C
00
3C
66
C3
C3
C3
C3
C3
C3
66
3C
ENDCHAR
STARTCHAR multiply
ENCODING 215
SWIDTH 42 0
DWIDTH 8 0
BBX 7 7 1 0
BITMAP
C2
44
28
10
28
C4
86
ENDCHAR
STARTCHAR Oslash
ENCODING 216
SWIDTH 42 0
DWIDTH 8 0
BBX 8 10 0 0
BITMAP
3F
66
C7
CF
CB
D3
F3
E3
66
FC
ENDCHAR
STARTCHAR Ugrave
ENCODING 217
SWIDTH 42 0
DWIDTH 8 0
BBX 7 13 1 0
BITMAP
30
18
00
C6
C6
C6
C6
C6
C6
C6
C6
C6
7C
ENDCHAR
STARTCHAR Uacute
ENCODING 218
SWIDTH 42 0
DWIDTH 8 0
BBX 7 13 1 0
BITMAP
18
30
00
C6
C6
C6
C6
C6
C6
C6
C6
C6
7C
ENDCHAR
STARTCHAR Ucircumflex
ENCODING 219
SWIDTH 42 0
DWIDTH 8 0
BBX 7 13 1 0
BITMAP
30
78
00
C6
C6
C6
C6
C6
C6
C6
C6
C6
7C
ENDCHAR
STARTCHAR Udieresis
ENCODING 220
SWIDTH 42 0
DWIDTH 8 0
BBX 7 12 1 0
BITMAP
78
00
C6
C6
C6
C6
C6
C6
C6
C6
C6
7C
ENDCHAR
STARTCHAR Yacute
ENCODING 221
SWIDTH 42 0
DWIDTH 8 0
BBX 8 13 0 0
BITMAP
18
30
00
C3
62
76
34
38
18
18
18
18
18
ENDCHAR
STARTCHAR Thorn
ENCODING 222
SWIDTH 42 0
DWIDTH 8 0
BBX 7 10 1 0
BITMAP
C0
C0
FC
C6
C6
C6
CE
FC
C0
C0
ENDCHAR
STARTCHAR germandbls
ENCODING 223
SWIDTH 42 0
DWIDTH 8 0
BBX 7 10 1 0
BITMAP
78
CC
CC
D8
D8
DC
CE
C6
D6
DC
ENDCHAR
STARTCHAR agrave
ENCODING 224
SWIDTH 42 0
DWIDTH 8 0
BBX 7 10 1 0
BITMAP
30
18
00
78
4C
0C
7C
CC
CC
76
ENDCHAR
STARTCHAR aacute
ENCODING 225
SWIDTH 42 0
DWIDTH 8 0
BBX 7 10 1 0
BITMAP
18
30
00
78
4C
0C
7C
CC
CC
76
ENDCHAR
STARTCHAR acircumflex
ENCODING 226
SWIDTH 42 0
DWIDTH 8 0
BBX 7 10 1 0
BITMAP
30
78
00
78
4C
0C
7C
CC
CC
76
ENDCHAR
STARTCHAR atilde
ENCODING 227
SWIDTH 42 0
DWIDTH 8 0
BBX 7 10 1 0
BITMAP
78
78
00
78
4C
0C
7C
CC
CC
76
ENDCHAR
STARTCHAR adieresis
ENCODING 228
SWIDTH 42 0
DWIDTH 8 0
BBX 7 9 1 0
BITMAP
78
00
78
4C
0C
7C
CC
CC
76
ENDCHAR
STARTCHAR aring
ENCODING 229
SWIDTH 42 0
DWIDTH 8 0
BBX 7 11 1 0
BITMAP
10
30
30
00
78
4C
0C
7C
CC
CC
76
ENDCHAR
STARTCHAR ae
ENCODING 230
SWIDTH 42 0
DWIDTH 8 0
BBX 7 7 1 0
BITMAP
7C
16
16
7E
D0
D0
6E
ENDCHAR
STARTCHAR ccedilla
ENCODING 231
SWIDTH 42 0
DWIDTH 8 0
BBX 7 10 1 -3
BITMAP
3E
60
C0
C0
C0
60
3E
10
18
38
ENDCHAR
STARTCHAR egrave
ENCODING 232
SWIDTH 42 0
DWIDTH 8 0
BBX 7 10 1 0
BITMAP
30
18
00
3C
66
C6
FE
C0
62
3E
ENDCHAR
STARTCHAR eacute
ENCODING 233
SWIDTH 42 0
DWIDTH 8 0
BBX 7 10 1 0
BITMAP
18
30
00
3C
66
C6
FE
C0
62
3E
ENDCHAR
STARTCHAR ecircumflex
ENCODING 234
SWIDTH 42 0
DWIDTH 8 0
BBX 7 10 1 0
BITMAP
30
78
00
3C
66
C6
FE
C0
62
3E
ENDCHAR
STARTCHAR edieresis
ENCODING 235
SWIDTH 42 0
DWIDTH 8 0
BBX 7 9 1 0
BITMAP
78
00
3C
66
C6
FE
C0
62
3E
ENDCHAR
STARTCHAR igrave
ENCODING 236
SWIDTH 42 0
DWIDTH 8 0
BBX 5 10 1 0
BITMAP
30
18
00
F8
18
18
18
18
18
18
ENDCHAR
STARTCHAR iacute
ENCODING 237
SWIDTH 42 0
DWIDTH 8 0
BBX 5 10 1 0
BITMAP
18
30
00
F8
18
18
18
18
18
18
ENDCHAR
STARTCHAR icircumflex
ENCODING 238
SWIDTH 42 0
DWIDTH 8 0
BBX 5 10 1 0
BITMAP
30
78
00
F8
18
18
18
18
18
18
ENDCHAR
STARTCHAR idieresis
ENCODING 239
SWIDTH 42 0
DWIDTH 8 0
BBX 5 9 1 0
BITMAP
78
00
F8
18
18
18
18
18
18
ENDCHAR
STARTCHAR eth
ENCODING 240
SWIDTH 42 0
DWIDTH 8 0
BBX 8 10 0 0
BITMAP
FC
3E
2E
3E
67
C3
C3
C3
66
3C
ENDCHAR
STARTCHAR ntilde
ENCODING 241
SWIDTH 42 0
DWIDTH 8 0
BBX 7 10 1 0
BITMAP
78
78
00
DC
FE
E6
C6
C6
C6
C6
ENDCHAR
STARTCHAR ograve
ENCODING 242
SWIDTH 42 0
DWIDTH 8 0
BBX 8 10 0 0
BITMAP
18
0C
00
3C
66
C3
C3
C3
66
3C
ENDCHAR
STARTCHAR oacute
ENCODING 243
SWIDTH 42 0
DWIDTH 8 0
BBX 8 10 0 0
BITMAP
0C
18
00
3C
66
C3
C3
C3
66
3C
ENDCHAR
STARTCHAR ocircumflex
ENCODING 244
SWIDTH 42 0
DWIDTH 8 0
BBX 8 10 0 0
BITMAP
18
3C
00
3C
66
C3
C3
C3
66
3C
ENDCHAR
STARTCHAR otilde
ENCODING 245
SWIDTH 42 0
DWIDTH 8 0
BBX 8 10 0 0
BITMAP
3C
3C
00
3C
66
C3
C3
C3
66
3C
ENDCHAR
STARTCHAR odieresis
ENCODING 246
SWIDTH 42 0
DWIDTH 8 0
BBX 8 9 0 0
BITMAP
3C
00
3C
66
C3
C3
C3
66
3C
ENDCHAR
STARTCHAR divide
ENCODING 247
SWIDTH 42 0
DWIDTH 8 0
BBX 8 7 0 0
BITMAP
18
18
00
FF
00
18
18
ENDCHAR
STARTCHAR oslash
ENCODING 248
SWIDTH 42 0
DWIDTH 8 0
BBX 8 7 0 0
BITMAP
3F
66
CF
DB
F3
66
FC
ENDCHAR
STARTCHAR ugrave
ENCODING 249
SWIDTH 42 0
DWIDTH 8 0
BBX 7 10 1 0
BITMAP
30
18
00
C6
C6
C6
C6
CE
FE
76
ENDCHAR
STARTCHAR uacute
ENCODING 250
SWIDTH 42 0
DWIDTH 8 0
BBX 7 10 1 0
BITMAP
18
30
00
C6
C6
C6
C6
CE
FE
76
ENDCHAR
STARTCHAR ucircumflex
ENCODING 251
SWIDTH 42 0
DWIDTH 8 0
BBX 7 10 1 0
BITMAP
18
3C
00
C6
C6
C6
C6
CE
FE
76
ENDCHAR
STARTCHAR udieresis
ENCODING 252
SWIDTH 42 0
DWIDTH 8 0
BBX 7 9 1 0
BITMAP
3C
00
C6
C6
C6
C6
CE
FE
76
ENDCHAR
STARTCHAR yacute
ENCODING 253
SWIDTH 42 0
DWIDTH 8 0
BBX 8 13 0 -3
BITMAP
18
30
00
C3
62
62
34
34
18
18
10
10
E0
ENDCHAR
STARTCHAR thorn
ENCODING 254
SWIDTH 42 0
DWIDTH 8 0
BBX 7 13 1 -3
BITMAP
C0
C0
C0
DC
FE
E6
C6
C6
CC
FC
C0
C0
C0
ENDCHAR
STARTCHAR ydieresis
ENCODING 255
SWIDTH 42 0
DWIDTH 8 0
BBX 8 12 0 -3
BITMAP
3C
00
C3
62
62
34
34
18
18
10
10
E0
ENDCHAR
STARTCHAR fl
ENCODING -1
SWIDTH 42 0
DWIDTH 8 0
BBX 7 10 1 0
BITMAP
3E
66
66
F6
66
66
66
66
66
66
ENDCHAR
STARTCHAR endash
ENCODING -1
SWIDTH 42 0
DWIDTH 8 0
BBX 7 1 1 4
BITMAP
FE
ENDCHAR
STARTCHAR dagger
ENCODING -1
SWIDTH 42 0
DWIDTH 8 0
BBX 6 13 1 -3
BITMAP
30
30
30
30
FC
30
30
30
30
30
30
30
30
ENDCHAR
STARTCHAR Zcaron
ENCODING -1
SWIDTH 42 0
DWIDTH 8 0
BBX 7 13 1 0
BITMAP
3C
18
00
FE
0E
0C
1C
18
30
70
60
E0
FE
ENDCHAR
STARTCHAR oe
ENCODING -1
SWIDTH 42 0
DWIDTH 8 0
BBX 8 7 0 0
BITMAP
76
D9
D9
DF
D8
D8
7F
ENDCHAR
STARTCHAR Ydieresis
ENCODING -1
SWIDTH 42 0
DWIDTH 8 0
BBX 8 12 0 0
BITMAP
3C
00
C3
62
76
34
38
18
18
18
18
18
ENDCHAR
STARTCHAR dotlessi
ENCODING -1
SWIDTH 42 0
DWIDTH 8 0
BBX 5 7 1 0
BITMAP
F8
18
18
18
18
18
18
ENDCHAR
STARTCHAR lslash
ENCODING -1
SWIDTH 42 0
DWIDTH 8 0
BBX 7 10 0 0
BITMAP
F8
18
18
1E
1E
78
58
18
18
18
ENDCHAR
STARTCHAR Lslash
ENCODING -1
SWIDTH 42 0
DWIDTH 8 0
BBX 9 10 0 0
BITMAP
3000
3000
3000
3400
3C00
F000
F000
3000
3000
3F80
ENDCHAR
STARTCHAR daggerdbl
ENCODING -1
SWIDTH 42 0
DWIDTH 8 0
BBX 6 13 1 -3
BITMAP
30
30
30
30
FC
30
30
30
FC
30
30
30
30
ENDCHAR
STARTCHAR fi
ENCODING -1
SWIDTH 42 0
DWIDTH 8 0
BBX 7 10 0 0
BITMAP
32
62
60
FE
66
66
66
66
66
66
ENDCHAR
STARTCHAR guilsinglright
ENCODING -1
SWIDTH 42 0
DWIDTH 8 0
BBX 4 7 2 0
BITMAP
40
C0
60
30
60
40
80
ENDCHAR
STARTCHAR OE
ENCODING -1
SWIDTH 42 0
DWIDTH 8 0
BBX 8 10 0 0
BITMAP
3F
64
C4
C4
C7
C4
C4
C4
64
3F
ENDCHAR
STARTCHAR emdash
ENCODING -1
SWIDTH 42 0
DWIDTH 8 0
BBX 8 1 0 4
BITMAP
FF
ENDCHAR
STARTCHAR caron
ENCODING -1
SWIDTH 42 0
DWIDTH 8 0
BBX 4 2 2 8
BITMAP
F0
60
ENDCHAR
STARTCHAR ogonek
ENCODING -1
SWIDTH 42 0
DWIDTH 8 0
BBX 2 2 3 -3
BITMAP
C0
C0
ENDCHAR
STARTCHAR hungarumlaut
ENCODING -1
SWIDTH 42 0
DWIDTH 8 0
BBX 5 2 2 8
BITMAP
78
B0
ENDCHAR
STARTCHAR guilsinglleft
ENCODING -1
SWIDTH 42 0
DWIDTH 8 0
BBX 4 7 2 0
BITMAP
10
20
60
C0
60
30
20
ENDCHAR
STARTCHAR dotaccent
ENCODING -1
SWIDTH 42 0
DWIDTH 8 0
BBX 2 1 3 9
BITMAP
C0
ENDCHAR
STARTCHAR breve
ENCODING -1
SWIDTH 42 0
DWIDTH 8 0
BBX 4 2 2 8
BITMAP
90
60
ENDCHAR
STARTCHAR bullet
ENCODING -1
SWIDTH 42 0
DWIDTH 8 0
BBX 5 5 2 1
BITMAP
F8
F8
F8
F8
F8
ENDCHAR
STARTCHAR tilde
ENCODING -1
SWIDTH 42 0
DWIDTH 8 0
BBX 4 2 2 8
BITMAP
F0
F0
ENDCHAR
STARTCHAR circumflex
ENCODING -1
SWIDTH 42 0
DWIDTH 8 0
BBX 4 2 2 8
BITMAP
60
F0
ENDCHAR
STARTCHAR quotedblleft
ENCODING -1
SWIDTH 42 0
DWIDTH 8 0
BBX 6 4 1 6
BITMAP
CC
88
CC
CC
ENDCHAR
STARTCHAR quotesingle
ENCODING -1
SWIDTH 42 0
DWIDTH 8 0
BBX 2 4 3 6
BITMAP
C0
C0
80
80
ENDCHAR
STARTCHAR scaron
ENCODING -1
SWIDTH 42 0
DWIDTH 8 0
BBX 6 10 1 0
BITMAP
78
30
00
7C
C0
E0
7C
1C
8C
F8
ENDCHAR
STARTCHAR ring
ENCODING -1
SWIDTH 42 0
DWIDTH 8 0
BBX 2 2 3 8
BITMAP
C0
C0
ENDCHAR
STARTCHAR quotesinglbase
ENCODING -1
SWIDTH 42 0
DWIDTH 8 0
BBX 2 5 3 -3
BITMAP
C0
C0
40
40
C0
ENDCHAR
STARTCHAR florin
ENCODING -1
SWIDTH 42 0
DWIDTH 8 0
BBX 6 13 1 -3
BITMAP
1C
30
30
30
F8
60
60
60
60
60
C0
C0
C0
ENDCHAR
STARTCHAR trademark
ENCODING -1
SWIDTH 42 0
DWIDTH 8 0
BBX 8 5 0 5
BITMAP
FB
5B
5F
55
51
ENDCHAR
STARTCHAR fraction
ENCODING -1
SWIDTH 42 0
DWIDTH 8 0
BBX 8 10 0 0
BITMAP
03
02
04
0C
08
10
30
20
40
C0
ENDCHAR
STARTCHAR grave
ENCODING -1
SWIDTH 42 0
DWIDTH 8 0
BBX 3 2 3 8
BITMAP
C0
60
ENDCHAR
STARTCHAR perthousand
ENCODING -1
SWIDTH 42 0
DWIDTH 8 0
BBX 9 10 0 0
BITMAP
E400
A800
A800
F000
1000
3F80
3680
5680
5680
9F80
ENDCHAR
STARTCHAR ellipsis
ENCODING -1
SWIDTH 42 0
DWIDTH 8 0
BBX 7 1 1 0
BITMAP
92
ENDCHAR
STARTCHAR quotedblright
ENCODING -1
SWIDTH 42 0
DWIDTH 8 0
BBX 6 4 1 6
BITMAP
CC
CC
44
CC
ENDCHAR
STARTCHAR Scaron
ENCODING -1
SWIDTH 42 0
DWIDTH 8 0
BBX 7 13 1 0
BITMAP
78
30
00
7C
C4
C0
E0
78
1C
0E
06
8E
F8
ENDCHAR
STARTCHAR quotedblbase
ENCODING -1
SWIDTH 42 0
DWIDTH 8 0
BBX 6 5 1 -3
BITMAP
CC
CC
44
44
CC
ENDCHAR
STARTCHAR zcaron
ENCODING -1
SWIDTH 42 0
DWIDTH 8 0
BBX 7 10 1 0
BITMAP
78
30
00
FE
0E
1C
38
70
E0
FE
ENDCHAR
ENDFONT
